<?xml version="1.0" encoding="utf-8"?>
<!-- Generator: Adobe Illustrator 16.0.4, SVG Export Plug-In . SVG Version: 6.00 Build 0)  -->
<!DOCTYPE svg PUBLIC "-//W3C//DTD SVG 1.1//EN" "http://www.w3.org/Graphics/SVG/1.1/DTD/svg11.dtd">
<svg version="1.1" id="Layer_1" xmlns="http://www.w3.org/2000/svg" xmlns:xlink="http://www.w3.org/1999/xlink" x="0px" y="0px"
	 width="300px" height="300px" viewBox="-3.67 -44.496 300 300" enable-background="new -3.67 -44.496 300 300"
	 xml:space="preserve">
<path fill="#098F9B" d="M155.253,62.071c-1.957,1.586-3.871,3.138-6.369,5.163c13.721,12.161,27.666,23.349,41.277,34.918
	c13.568,11.533,27.293,22.887,40.939,34.328c13.766,11.543,27.52,23.098,41.514,34.844c-1.166,1.438-2.076,2.564-3.324,4.108
	c-41.621-34.896-83.022-69.61-124.664-104.523c-41.112,34.487-82.102,68.87-123.416,103.526c-1.271-1.419-2.325-2.593-3.584-3.996
	c40.951-34.365,81.599-68.474,122.273-102.605c-1.289-1.554-2.393-2.885-3.807-4.589c-17.135,14.834-33.923,29.368-51.164,44.294
	c-1.335-4.482-0.525-8.432-0.673-12.299c-0.146-3.828-0.031-7.664-0.031-11.498c0-3.987,0-7.978,0-12.358c-2.3,0-4.35,0-7.01,0
	c-0.595,14.166-0.009,28.417-0.337,43.163c-20.358,17.656-40.931,35.501-61.686,53.501c-3.213-3.74-6.12-7.124-9.225-10.738
	c19.096-16.583,38.044-33.04,57.017-49.517c0-16.865,0-33.508,0-50.085c3.842-1.021,23.925-1.328,35.177-0.578
	c1.133,2.979,0.36,6.146,0.501,9.231c0.137,2.98,0.03,5.974,0.03,9.448c4.326-1.617,6.699-5.13,9.869-7.514
	c3.317-2.496,6.312-5.421,9.447-8.16c3.01-2.629,6.015-5.261,9.023-7.89c3.135-2.738,6.265-5.483,9.413-8.207
	c3.138-2.714,6.296-5.404,9.862-8.462c46.781,40.574,93.51,81.104,140.385,121.76c-2.984,3.399-5.917,6.739-9.303,10.595
	C236.482,132.632,196.003,97.355,155.253,62.071z M139.811,59.995c1.936,1.516,3.334,2.61,5,3.915
	c2.067-1.885,4.032-3.674,6.21-5.658c-1.842-1.487-3.217-2.597-4.807-3.881C144.064,56.257,142.129,57.958,139.811,59.995z"/>
<path fill="#FCFDFD" d="M139.454,84.841c2.319-2.037,4.254-3.736,6.404-5.624c1.59,1.284,2.965,2.394,4.807,3.881
	c-2.179,1.984-4.143,3.773-6.21,5.658C142.788,87.451,141.39,86.356,139.454,84.841z"/>
</svg>
