<?xml version="1.0" encoding="utf-8"?>
<!-- Generator: Adobe Illustrator 16.0.4, SVG Export Plug-In . SVG Version: 6.00 Build 0)  -->
<!DOCTYPE svg PUBLIC "-//W3C//DTD SVG 1.1//EN" "http://www.w3.org/Graphics/SVG/1.1/DTD/svg11.dtd">
<svg version="1.1" id="Layer_1" xmlns="http://www.w3.org/2000/svg" xmlns:xlink="http://www.w3.org/1999/xlink" x="0px" y="0px"
	 width="292.66px" height="211.009px" viewBox="0 0 292.66 211.009" enable-background="new 0 0 292.66 211.009"
	 xml:space="preserve">
<g>
	<path fill="#FCFDFD" d="M-23.468,232.651c0-85,0-170,0-255c113.333,0,226.666,0,340,0c0,85,0,170,0,255
		C203.198,232.651,89.866,232.651-23.468,232.651z M154.897,86.917c40.75,35.285,81.229,70.562,122.137,105.861
		c3.386-3.855,6.318-7.195,9.303-10.595c-46.875-40.656-93.604-81.186-140.385-121.76c-3.566,3.058-6.725,5.748-9.862,8.462
		c-3.148,2.724-6.278,5.469-9.413,8.207c-3.009,2.629-6.014,5.261-9.023,7.89c-3.135,2.739-6.129,5.664-9.448,8.16
		c-3.17,2.384-5.543,5.896-9.869,7.514c0-3.476,0.107-6.468-0.03-9.449c-0.142-3.086,0.631-6.254-0.501-9.231
		c-11.252-0.75-31.335-0.443-35.177,0.578c0,16.577,0,33.22,0,50.085c-18.972,16.477-37.921,32.934-57.016,49.517
		c3.104,3.614,6.011,6.998,9.224,10.738c20.754-18,41.327-35.844,61.686-53.501c0.328-14.746-0.258-28.997,0.337-43.163
		c2.661,0,4.71,0,7.009,0c0,4.382,0,8.371,0,12.359c0,3.833-0.114,7.67,0.032,11.497c0.147,3.867-0.662,7.816,0.673,12.299
		c17.241-14.926,34.029-29.46,51.164-44.294c1.414,1.704,2.517,3.035,3.806,4.589c-40.675,34.133-81.322,68.241-122.273,102.605
		c1.26,1.404,2.312,2.578,3.584,3.997c41.313-34.656,82.303-69.04,123.415-103.527c41.642,34.914,83.044,69.629,124.664,104.524
		c1.249-1.544,2.159-2.67,3.325-4.109c-13.994-11.746-27.748-23.301-41.514-34.843c-13.646-11.442-27.371-22.795-40.939-34.329
		c-13.611-11.569-27.558-22.757-41.277-34.918C151.026,90.055,152.94,88.503,154.897,86.917z M146.954,201.777
		c6.102,1.015,11.91,1.24,17.66,0.337c3.727-0.586,7.521-1.542,10.947-3.084c6.885-3.097,9.398-8.974,8.998-16.284
		c-0.343-6.249-3.884-10.785-10.584-13.022c-8.567-2.859-17.334-2.533-26.113-1.125c-0.275,0.044-0.502,0.388-0.908,0.72
		C146.954,179.809,146.954,190.427,146.954,201.777z M140.702,184.856c0.435-7.897-4.625-13.525-10.747-15.733
		c-7.06-2.547-14.121-2.216-20.845,1.041c-6.09,2.95-9.156,8.301-9.296,14.873c-0.132,6.188,2.583,11.302,8.133,14.504
		c6.961,4.016,14.271,4.032,21.636,1.366C136.838,198.28,140.698,192.547,140.702,184.856z M121.717,38.938
		c0.372-7.782,0.725-15.183,1.122-23.504c2.239,8.307,4.242,15.74,6.267,23.253c2.303-0.118,4.066-0.208,5.772-0.295
		c2.461-7.94,4.804-15.501,7.147-23.062c0.255,0.016,0.51,0.032,0.765,0.048c0,7.736,0,15.474,0,23.487c2.797,0,4.989,0,7.445,0
		c-0.595-10.791-1.167-21.165-1.751-31.744c-3.393,0-6.32,0-9.604,0c-2.076,6.777-4.146,13.537-6.377,20.821
		c-2.058-7.418-3.908-14.088-5.754-20.739c-3.522,0-6.591,0-9.904,0c-0.654,10.65-1.291,21.013-1.949,31.734
		C117.198,38.938,119.104,38.938,121.717,38.938z M87.279,168.135c-1.854,2.092-3.843,4.312-5.805,6.559
		c-2.032,2.326-4.035,4.678-6.051,7.018c-0.292-0.112-0.584-0.225-0.876-0.338c0-4.362,0-8.726,0-13.174c-3.372,0-6.246,0-9.36,0
		c0,11.398,0,22.445,0,33.799c3.187,0,6.078,0,9.314,0c0-3.808,0-7.423,0-10.941c1.212-1.317,2.217-2.409,3.474-3.774
		c3.788,5.226,7.28,10.043,10.679,14.732c3.663,0,7.057,0,11.184,0c-5.12-6.837-9.84-13.14-14.602-19.499
		c4.597-4.771,8.934-9.272,13.856-14.381C94.613,168.135,91.056,168.135,87.279,168.135z M215.885,168.063
		c0,2.265,0.011,4.054-0.002,5.843c-0.037,5.325,0.073,10.657-0.181,15.972c-0.172,3.577-2.216,5.55-5.49,6.073
		c-4.375,0.699-7.374-0.525-8.673-3.988c-0.678-1.807-0.881-3.869-0.918-5.823c-0.113-5.939-0.041-11.884-0.041-17.9
		c-3.544,0-6.576,0-9.788,0c0,6.862-0.396,13.373,0.104,19.814c0.575,7.394,2.829,11.864,11.684,13.997
		c5.188,1.25,10.24,0.751,15.107-1.293c4.294-1.804,7.341-5.155,7.623-9.721c0.468-7.563,0.127-15.178,0.127-22.974
		C222.312,168.063,219.537,168.063,215.885,168.063z M73.723,39.038c-3.472-11.111-6.717-21.502-9.958-31.877
		c-3.375,0-6.303,0-9.547,0c-3.237,10.644-6.426,21.131-9.789,32.188c3.083-0.149,5.329-0.258,7.453-0.36
		c0.975-2.962,1.796-5.461,2.649-8.051c2.997,0,5.773,0,8.657,0c0.967,2.745,1.888,5.36,2.854,8.101
		C68.562,39.038,70.832,39.038,73.723,39.038z M16.477,7.16c3.528,10.87,6.931,21.354,10.307,31.758c3.14,0,5.726,0,8.136,0
		c3.537-7.227,10.216-28.367,10.078-31.649c-2.254,0-4.48,0-6.862,0c-2.332,8.047-4.577,15.797-6.879,23.738
		c-2.282-8.235-4.444-16.037-6.608-23.847C21.808,7.16,19.385,7.16,16.477,7.16z M188.624,8.603
		c-4.771-2.342-10.759-2.56-14.652-0.66c-3.215,1.567-5.264,3.97-5.45,7.694c-0.186,3.712,1.446,6.421,4.662,8.127
		c2.042,1.083,4.21,1.928,6.307,2.91c2.118,0.993,3.729,2.28,2.637,5.013c-3.997,3.902-8.351,0.851-12.823,0.304
		c-0.347,2.028-0.642,3.755-0.935,5.471c5.289,2.599,10.304,2.767,15.335,0.946c3.771-1.364,6.008-4.284,6.207-8.258
		c0.186-3.723-1.474-6.767-4.926-8.531c-1.764-0.902-3.623-1.618-5.439-2.419c-1.865-0.821-3.613-1.744-3.646-4.351
		c3.085-4.111,7.104-1.708,11.044-1.256C187.468,12.037,187.982,10.508,188.624,8.603z M252.495,13.559c0,8.636,0,17.012,0,25.377
		c2.689,0,4.76,0,7.07,0c0-4.472-0.091-8.627,0.025-12.776c0.12-4.231-0.537-8.519,0.417-12.675
		c2.948-0.139,5.556-0.261,8.185-0.384c0-2.169,0-3.94,0-5.853c-8.275,0-16.312,0-24.304,0c0,2.132,0,3.901,0,5.913
		C246.72,13.292,249.317,13.412,252.495,13.559z M85.189,32.807c0-8.968,0-17.232,0-25.605c-2.624,0-4.854,0-7.237,0
		c0,10.726,0,21.148,0,31.537c6.188,0.939,16.552,0.736,20.125-0.463c-0.099-1.656-0.203-3.402-0.327-5.469
		C93.483,32.807,89.699,32.807,85.189,32.807z M202.194,32.789c0-8.958,0-17.209,0-25.601c-2.608,0-4.836,0-7.168,0
		c0,10.669,0,21.054,0,31.757c6.668,0,13.049,0,19.621,0c0-2.097,0-3.95,0-6.156C210.46,32.789,206.683,32.789,202.194,32.789z
		 M155.962,7.127c0,10.732,0,21.239,0,31.764c2.508,0,4.729,0,6.889,0c0.93-6.64,0.658-28.543-0.312-31.764
		C160.396,7.127,158.288,7.127,155.962,7.127z M219.089,7.162c-0.342,10.728-0.27,21.195-0.067,32.166
		c2.846-0.183,5.025-0.322,7.116-0.456c0-10.953,0-21.31,0-31.71C223.717,7.162,221.638,7.162,219.089,7.162z M102.619,7.212
		c-1.035,4.216-0.978,27.946,0.15,32.046c2.091-0.115,4.275-0.236,6.378-0.353c0-10.964,0-21.323,0-32.001
		c-1.792,0-3.259-0.031-4.724,0.015C103.794,6.938,103.169,7.118,102.619,7.212z M239.427,38.903c0-10.762,0-21.161,0-31.734
		c-2.367,0-4.438,0-6.627,0c0,10.675,0,21.076,0,31.734C235.147,38.903,237.216,38.903,239.427,38.903z"/>
	<path fill-rule="evenodd" clip-rule="evenodd" fill="#098F9B" d="M154.897,86.917c-1.957,1.586-3.871,3.138-6.369,5.163
		c13.72,12.161,27.666,23.349,41.277,34.918c13.568,11.534,27.293,22.887,40.939,34.329c13.766,11.542,27.52,23.097,41.514,34.843
		c-1.166,1.439-2.076,2.565-3.325,4.109c-41.62-34.896-83.022-69.61-124.664-104.524c-41.112,34.487-82.101,68.871-123.415,103.527
		c-1.272-1.419-2.325-2.593-3.584-3.997c40.951-34.364,81.598-68.473,122.273-102.605c-1.289-1.554-2.392-2.885-3.806-4.589
		c-17.135,14.834-33.923,29.368-51.164,44.294c-1.335-4.482-0.526-8.432-0.673-12.299c-0.146-3.827-0.032-7.664-0.032-11.497
		c0-3.988,0-7.978,0-12.359c-2.299,0-4.349,0-7.009,0c-0.595,14.166-0.009,28.417-0.337,43.163
		c-20.359,17.657-40.931,35.501-61.686,53.501c-3.213-3.74-6.12-7.124-9.224-10.738c19.095-16.583,38.044-33.04,57.016-49.517
		c0-16.865,0-33.508,0-50.085c3.842-1.021,23.925-1.328,35.177-0.578c1.133,2.978,0.36,6.146,0.501,9.231
		c0.137,2.981,0.03,5.974,0.03,9.449c4.326-1.618,6.699-5.13,9.869-7.514c3.318-2.496,6.313-5.421,9.448-8.16
		c3.009-2.629,6.014-5.261,9.023-7.89c3.135-2.738,6.265-5.483,9.413-8.207c3.138-2.714,6.296-5.404,9.862-8.462
		c46.781,40.574,93.51,81.104,140.385,121.76c-2.984,3.399-5.917,6.739-9.303,10.595
		C236.126,157.479,195.647,122.202,154.897,86.917z M139.454,84.841c1.936,1.516,3.334,2.61,5,3.915
		c2.068-1.885,4.033-3.674,6.21-5.658c-1.842-1.487-3.217-2.597-4.807-3.881C143.708,81.104,141.773,82.804,139.454,84.841z"/>
	<path fill-rule="evenodd" clip-rule="evenodd" fill="#098F9B" d="M146.954,201.777c0-11.351,0-21.969,0-32.459
		c0.406-0.332,0.633-0.676,0.908-0.72c8.779-1.408,17.546-1.734,26.113,1.125c6.7,2.237,10.241,6.773,10.584,13.022
		c0.4,7.311-2.113,13.188-8.998,16.284c-3.427,1.542-7.221,2.498-10.947,3.084C158.864,203.018,153.056,202.792,146.954,201.777z
		 M156.821,195.976c7.598,1.021,13.519-1.015,16.132-5.27c2.275-3.706,2.173-9.618-0.57-12.701
		c-4.246-4.771-9.76-4.793-15.562-3.972C156.821,181.503,156.821,188.608,156.821,195.976z"/>
	<path fill-rule="evenodd" clip-rule="evenodd" fill="#098F9B" d="M140.702,184.856c-0.004,7.69-3.864,13.424-11.12,16.051
		c-7.365,2.666-14.674,2.649-21.636-1.366c-5.55-3.202-8.265-8.315-8.133-14.504c0.14-6.572,3.206-11.923,9.296-14.873
		c6.725-3.257,13.785-3.588,20.845-1.041C136.078,171.331,141.137,176.959,140.702,184.856z M110.214,185.045
		c-0.022,5.235,2.095,8.917,6.048,10.517c5.423,2.194,11,0.04,13.385-5.17c2.648-5.785,0.431-13.23-4.667-15.67
		C117.5,171.142,110.252,176.208,110.214,185.045z"/>
	<path fill-rule="evenodd" clip-rule="evenodd" fill="#098F9B" d="M121.717,38.938c-2.612,0-4.519,0-6.82,0
		c0.658-10.722,1.295-21.084,1.949-31.734c3.312,0,6.381,0,9.904,0c1.846,6.651,3.696,13.321,5.754,20.739
		c2.231-7.284,4.301-14.044,6.377-20.821c3.283,0,6.211,0,9.604,0c0.584,10.579,1.156,20.953,1.751,31.744c-2.456,0-4.648,0-7.445,0
		c0-8.014,0-15.751,0-23.487c-0.255-0.016-0.51-0.032-0.765-0.048c-2.343,7.561-4.686,15.121-7.147,23.062
		c-1.706,0.087-3.469,0.177-5.772,0.295c-2.024-7.513-4.028-14.946-6.267-23.253C122.441,23.755,122.088,31.155,121.717,38.938z"/>
	<path fill-rule="evenodd" clip-rule="evenodd" fill="#098F9B" d="M87.279,168.135c3.777,0,7.333,0,11.812,0
		c-4.922,5.108-9.259,9.61-13.856,14.381c4.762,6.359,9.482,12.662,14.602,19.499c-4.126,0-7.521,0-11.184,0
		c-3.399-4.689-6.891-9.507-10.679-14.732c-1.257,1.365-2.262,2.457-3.474,3.774c0,3.519,0,7.134,0,10.941c-3.236,0-6.127,0-9.314,0
		c0-11.354,0-22.4,0-33.799c3.115,0,5.989,0,9.36,0c0,4.448,0,8.812,0,13.174c0.292,0.113,0.584,0.226,0.876,0.338
		c2.016-2.34,4.02-4.691,6.051-7.018C83.436,172.447,85.426,170.227,87.279,168.135z"/>
	<path fill-rule="evenodd" clip-rule="evenodd" fill="#098F9B" d="M215.885,168.063c3.652,0,6.427,0,9.553,0
		c0,7.796,0.341,15.41-0.127,22.974c-0.282,4.565-3.329,7.917-7.623,9.721c-4.867,2.044-9.919,2.543-15.107,1.293
		c-8.854-2.133-11.108-6.604-11.684-13.997c-0.501-6.441-0.104-12.952-0.104-19.814c3.212,0,6.244,0,9.788,0
		c0,6.017-0.072,11.961,0.041,17.9c0.037,1.954,0.24,4.017,0.918,5.823c1.299,3.463,4.298,4.688,8.673,3.988
		c3.274-0.523,5.318-2.496,5.49-6.073c0.254-5.314,0.144-10.646,0.181-15.972C215.896,172.117,215.885,170.328,215.885,168.063z"/>
	<path fill-rule="evenodd" clip-rule="evenodd" fill="#098F9B" d="M73.723,39.038c-2.891,0-5.161,0-7.682,0
		c-0.965-2.74-1.886-5.355-2.854-8.101c-2.883,0-5.66,0-8.657,0c-0.853,2.59-1.674,5.089-2.649,8.051
		c-2.124,0.103-4.37,0.211-7.453,0.36c3.362-11.057,6.552-21.544,9.789-32.188c3.244,0,6.172,0,9.547,0
		C67.005,17.536,70.251,27.927,73.723,39.038z M58.801,12.552c-1.242,4.754-2.25,8.61-3.313,12.682c2.519,0,4.542,0,6.724,0
		C61.109,21.136,60.092,17.355,58.801,12.552z"/>
	<path fill-rule="evenodd" clip-rule="evenodd" fill="#098F9B" d="M16.477,7.16c2.909,0,5.331,0,8.172,0
		c2.164,7.81,4.326,15.611,6.608,23.847c2.302-7.941,4.547-15.691,6.879-23.738c2.381,0,4.607,0,6.862,0
		c0.139,3.282-6.541,24.423-10.078,31.649c-2.411,0-4.996,0-8.136,0C23.407,28.515,20.004,18.03,16.477,7.16z"/>
	<path fill-rule="evenodd" clip-rule="evenodd" fill="#098F9B" d="M188.624,8.603c-0.642,1.905-1.156,3.435-1.68,4.99
		c-3.939-0.452-7.959-2.855-11.044,1.256c0.032,2.606,1.78,3.529,3.646,4.351c1.816,0.801,3.676,1.517,5.439,2.419
		c3.452,1.765,5.111,4.809,4.926,8.531c-0.199,3.974-2.437,6.894-6.207,8.258c-5.031,1.82-10.046,1.652-15.335-0.946
		c0.293-1.716,0.588-3.442,0.935-5.471c4.473,0.547,8.826,3.599,12.823-0.304c1.092-2.732-0.519-4.02-2.637-5.013
		c-2.097-0.982-4.265-1.827-6.307-2.91c-3.216-1.706-4.848-4.415-4.662-8.127c0.187-3.725,2.235-6.127,5.45-7.694
		C177.865,6.043,183.853,6.261,188.624,8.603z"/>
	<path fill-rule="evenodd" clip-rule="evenodd" fill="#098F9B" d="M252.495,13.559c-3.178-0.146-5.775-0.267-8.606-0.397
		c0-2.012,0-3.781,0-5.913c7.991,0,16.028,0,24.304,0c0,1.912,0,3.684,0,5.853c-2.629,0.123-5.236,0.245-8.185,0.384
		c-0.954,4.156-0.297,8.443-0.417,12.675c-0.116,4.149-0.025,8.305-0.025,12.776c-2.311,0-4.381,0-7.07,0
		C252.495,30.57,252.495,22.194,252.495,13.559z"/>
	<path fill-rule="evenodd" clip-rule="evenodd" fill="#098F9B" d="M85.189,32.807c4.51,0,8.294,0,12.562,0
		c0.124,2.066,0.228,3.812,0.327,5.469c-3.574,1.199-13.938,1.402-20.125,0.463c0-10.389,0-20.812,0-31.537c2.383,0,4.613,0,7.237,0
		C85.189,15.574,85.189,23.839,85.189,32.807z"/>
	<path fill-rule="evenodd" clip-rule="evenodd" fill="#098F9B" d="M202.194,32.789c4.488,0,8.266,0,12.453,0c0,2.206,0,4.06,0,6.156
		c-6.572,0-12.953,0-19.621,0c0-10.703,0-21.088,0-31.757c2.332,0,4.56,0,7.168,0C202.194,15.58,202.194,23.831,202.194,32.789z"/>
	<path fill-rule="evenodd" clip-rule="evenodd" fill="#098F9B" d="M155.962,7.127c2.326,0,4.434,0,6.576,0
		c0.971,3.221,1.242,25.124,0.312,31.764c-2.16,0-4.381,0-6.889,0C155.962,28.366,155.962,17.859,155.962,7.127z"/>
	<path fill-rule="evenodd" clip-rule="evenodd" fill="#098F9B" d="M219.089,7.162c2.549,0,4.628,0,7.049,0c0,10.4,0,20.757,0,31.71
		c-2.091,0.134-4.271,0.273-7.116,0.456C218.819,28.357,218.747,17.89,219.089,7.162z"/>
	<path fill-rule="evenodd" clip-rule="evenodd" fill="#098F9B" d="M102.619,7.212c0.55-0.094,1.175-0.273,1.805-0.293
		c1.465-0.046,2.932-0.015,4.724-0.015c0,10.678,0,21.037,0,32.001c-2.103,0.116-4.288,0.237-6.378,0.353
		C101.641,35.158,101.584,11.428,102.619,7.212z"/>
	<path fill-rule="evenodd" clip-rule="evenodd" fill="#098F9B" d="M239.427,38.903c-2.211,0-4.279,0-6.627,0
		c0-10.658,0-21.06,0-31.734c2.188,0,4.26,0,6.627,0C239.427,17.742,239.427,28.142,239.427,38.903z"/>
	<path fill-rule="evenodd" clip-rule="evenodd" fill="#FCFDFD" d="M139.454,84.841c2.319-2.037,4.254-3.736,6.404-5.624
		c1.59,1.284,2.965,2.394,4.807,3.881c-2.178,1.984-4.143,3.773-6.21,5.658C142.788,87.451,141.39,86.356,139.454,84.841z"/>
	<path fill-rule="evenodd" clip-rule="evenodd" fill="#FCFDFD" d="M156.821,195.976c0-7.367,0-14.473,0-21.942
		c5.802-0.821,11.315-0.8,15.562,3.972c2.743,3.083,2.846,8.995,0.57,12.701C170.34,194.961,164.419,196.997,156.821,195.976z"/>
	<path fill-rule="evenodd" clip-rule="evenodd" fill="#FCFDFD" d="M110.214,185.045c0.038-8.837,7.285-13.903,14.766-10.323
		c5.097,2.439,7.314,9.885,4.667,15.67c-2.385,5.21-7.962,7.364-13.385,5.17C112.309,193.962,110.192,190.28,110.214,185.045z"/>
	<path fill-rule="evenodd" clip-rule="evenodd" fill="#FCFDFD" d="M58.801,12.552c1.292,4.804,2.309,8.584,3.41,12.682
		c-2.182,0-4.205,0-6.724,0C56.551,21.162,57.559,17.306,58.801,12.552z"/>
</g>
</svg>
